<svg width="360" height="118" viewBox="0 0 360 118" fill="none" xmlns="http://www.w3.org/2000/svg" role="img" aria-labelledby="title desc">
  <title id="title">Conecta+ Educação e Tecnologia</title>
  <desc id="desc">Logotipo Conecta+ com ícone de celular, fone e balão de mensagem.</desc>
  <g filter="url(#softShadow)">
    <path d="M68 18C54 18 43 29 43 43v8" stroke="#0756D9" stroke-width="6" stroke-linecap="round"/>
    <rect x="51" y="23" width="44" height="70" rx="13" fill="#F7FBFF" stroke="#0756D9" stroke-width="4"/>
    <rect x="58" y="31" width="30" height="54" rx="10" fill="#EAF5FF"/>
    <path d="M65 43h16" stroke="#0756D9" stroke-width="4" stroke-linecap="round"/>
    <path d="M64 57h25" stroke="#0B63F6" stroke-width="4" stroke-linecap="round"/>
    <path d="M64 67h18" stroke="#27BEE8" stroke-width="4" stroke-linecap="round"/>
    <path d="M86 57c6 0 11 5 11 11v3c0 6-5 11-11 11h-9l-12 10V82h-1c-6 0-11-5-11-11v-3c0-6 5-11 11-11h22Z" fill="#0756D9"/>
    <path d="M70 67h18M70 75h12" stroke="white" stroke-width="4" stroke-linecap="round"/>
    <rect x="28" y="55" width="16" height="34" rx="8" fill="url(#blueGrad)" stroke="#073B91" stroke-width="3"/>
    <rect x="102" y="55" width="16" height="34" rx="8" fill="url(#blueGrad)" stroke="#073B91" stroke-width="3"/>
    <path d="M103 48c0-19-14-34-35-34S33 29 33 48" stroke="#061C44" stroke-width="5" stroke-linecap="round"/>
  </g>
  <text x="135" y="58" fill="#061431" font-family="Segoe UI, Arial, sans-serif" font-size="34" font-weight="900" letter-spacing="0">CONECTA</text>
  <text x="306" y="58" fill="#0756D9" font-family="Segoe UI, Arial, sans-serif" font-size="34" font-weight="900">+</text>
  <text x="137" y="82" fill="#064CE4" font-family="Segoe UI, Arial, sans-serif" font-size="15" font-weight="800" letter-spacing="1.1">EDUCAÇÃO &amp; TECNOLOGIA</text>
  <defs>
    <linearGradient id="blueGrad" x1="28" y1="55" x2="118" y2="91" gradientUnits="userSpaceOnUse">
      <stop stop-color="#0A4BE0"/>
      <stop offset="1" stop-color="#20C4E8"/>
    </linearGradient>
    <filter id="softShadow" x="20" y="6" width="108" height="99" color-interpolation-filters="sRGB" filterUnits="userSpaceOnUse">
      <feDropShadow dx="0" dy="5" stdDeviation="3" flood-color="#0B3D90" flood-opacity=".22"/>
    </filter>
  </defs>
</svg>
